# xmcd
#
# Track frame offsets:
#	150
#	16167
#	34017
#	40749
#	61149
#	76665
#	87840
#	102165
#	115758
#	126408
#	150633
#	164808
#	176733
#	193006
#	212281
#
# Disc length: 3003 seconds
#
# Revision: 0
# Processed by: cddbd v1.5.2PL0 Copyright (c) Steve Scherf et al.
# Submitted via: EasyCDDAExtractor 16.0.8.2
#
DISCID=b70bb90f
DTITLE=Κολλητήρη Σοφία - Το αηδόνι της Ρούμελης-Σ. Κολλητήρη 1
DYEAR=2015
DGENRE=Παραδοσιακή
TTITLE0=Σελήμπεης [Σ. Κολλητήρη]
TTITLE1=Ο Λιούλιος [Σ. Κολλητήρη]
TTITLE2=Κόρη που πας στον ποταμό[Γ.Παπασιδέρης-Σ.Περιστέρης]
TTITLE3=Όλες οι νιές παντρεύονται [παραδοσιακό]
TTITLE4=Εγώ είμαι η βλάχα [Σ. Κολλητήρη]
TTITLE5=Η αγάπη σου μ' αρέσει [παραδοσιακό]
TTITLE6=Το γιασεμί στην πόρτα σου [Σ. Κολλητήρη]
TTITLE7=Δεν μού μίλησες [Σ. Κολλητήρη]
TTITLE8=Όλοι τον ήλιο τον κοιτούν [Σ. Κολλητήρη-Δ. Βαβάτσικος]
TTITLE9=Τι τα φυλάς τα νιάτα σου-Φόρα τα μαύρα [Σ. Κολλητήρη]
TTITLE10=Νά 'χα νεράτζι  νά 'ριχνα [παραδοσιακό]
TTITLE11=Μέσ' στην Αγια Παρασκευή [Σ. Κολλητήρη]
TTITLE12=Δέσπω [παραδοσιακό]
TTITLE13=Εγέρασα, μαννούλα μου [Σ. Κολλητήρη]
TTITLE14=Δώδεκα ευζωνάκια [Σ. Κολλητήρη]
EXTD=
EXTT0=
EXTT1=
EXTT2=
EXTT3=
EXTT4=
EXTT5=
EXTT6=
EXTT7=
EXTT8=
EXTT9=
EXTT10=
EXTT11=
EXTT12=
EXTT13=
EXTT14=
PLAYORDER=
